<svg width="78" height="48" viewBox="0 0 78 48" fill="none" xmlns="http://www.w3.org/2000/svg">
<path fill-rule="evenodd" clip-rule="evenodd" d="M72.6573 15.2058C72.3589 14.9893 72.0079 14.7274 71.8505 14.5719C71.9356 14.4259 72.0858 14.1991 72.2211 14.0082C73.0064 12.8698 74.4793 10.7172 74.4793 7.64412C74.4793 5.87938 73.8342 3.96435 72.28 2.4932C70.7269 1.02144 68.2704 -0.000698671 64.6678 3.58322e-07C61.2497 0.000544048 57.401 1.12311 54.0755 3.08909C52.5839 3.97359 51.3559 4.9266 50.4959 5.84179C49.6386 6.75689 49.1415 7.63216 49.1392 8.38563C49.1384 8.75084 49.2793 9.08668 49.5451 9.34998C49.7558 9.5572 50.0369 9.71612 50.3771 9.83953C50.7329 7.52621 59.511 2.49724 65.9392 3.23394C68.8137 3.56334 70.9532 5.70299 70.6558 8.66687C70.3714 11.5022 67.4852 13.0416 65.0004 13.7837C63.6139 14.1978 62.2219 14.5998 60.8914 15.1769C60.2383 15.4602 59.5781 15.7821 59.0058 16.2092C58.5887 16.5205 58.0483 16.9247 58.0783 17.5084C59.0613 18.1774 60.622 18.5655 61.637 18.6388C62.4611 18.6984 62.6911 18.713 63.6163 18.7408C65.5143 18.798 67.5079 18.8628 69.28 19.6227C71.7669 20.6892 73.2302 23.26 72.6946 25.9508C72.0062 29.4099 68.5169 31.5032 65.278 32.103C61.8137 32.7446 57.4678 32.2425 55.1799 29.2525C54.245 28.0308 53.6556 26.3928 53.9108 24.8478C54.194 23.1323 55.3996 21.4906 57.1369 21.0515C58.2326 20.7744 59.387 21.031 60.2572 21.6781C60.0417 21.3706 59.7899 21.0901 59.5036 20.8419C58.4973 19.9682 57.0821 19.4773 55.4407 19.4773C53.4146 19.4768 51.7887 20.3179 50.6754 21.565C49.5617 22.8128 48.9561 24.4628 48.9553 26.0889C48.9547 28.6478 50.136 31.2181 52.4361 33.1447C54.7377 35.0714 58.1571 36.3548 62.6337 36.3548C66.1829 36.3546 69.7627 35.1828 72.4721 33.1477C74.7165 31.4572 77.3992 28.3758 77.398 23.3211C77.3992 18.6958 74.2935 16.4096 72.6573 15.2058ZM60.8878 25.218C60.8713 24.7358 60.8506 24.5614 60.8506 24.5614C60.8252 24.3545 60.7861 24.148 60.7269 23.948C60.2114 22.2062 58.1346 21.4433 56.6323 22.5103C55.3871 23.3946 54.8978 25.0925 55.3489 26.5226C56.496 30.1579 60.6984 30.9125 64.0121 30.413C65.6437 30.1672 67.2487 29.5786 68.5462 28.5392C69.8016 27.5334 70.7561 25.9811 70.4454 24.3551C70.2393 21.9172 68.3902 20.7031 65.3756 20.3531C65.5188 20.647 65.9836 22.7828 64.4661 24.1622C63.5386 25.0051 62.5485 25.2284 61.2158 25.2301C61.164 25.2301 60.8878 25.218 60.8878 25.218ZM6.66473 23.2994C7.06745 23.5661 7.46978 23.7958 7.89797 24.0178C8.32484 24.2418 8.76135 24.4483 9.20927 24.6212C9.20927 24.6212 9.83793 24.8798 10.5736 25.0682C11.3094 25.2564 11.975 25.3374 11.975 25.3374C12.4463 25.4015 12.9205 25.4157 13.3937 25.4094C13.3937 25.4094 14.1754 25.386 14.8056 25.2693C16.332 25.0172 17.885 23.8753 18.2828 23.5922L18.92 23.1398C19.152 22.9794 19.3906 22.8258 19.6406 22.6858C20.1385 22.4047 20.676 22.1686 21.2511 22.0157C21.8267 21.8656 22.3647 21.8082 22.9735 21.8732C23.0497 21.8791 23.5102 21.9252 24.0827 22.143C24.0827 22.143 24.4839 22.2972 24.7057 22.4387C24.967 22.6051 25.2118 22.7851 25.4335 22.9727C26.5175 23.89 29.6904 27.7178 30.6051 28.5367C31.6855 29.5039 33.0424 30.4876 34.142 30.779C36.2664 31.342 37.9415 30.8297 39.8479 29.6245C41.9531 28.2934 43.6592 26.3067 45.1104 24.309C46.6412 22.2016 48.0205 19.9039 48.9198 17.4524C49.3648 16.239 49.7236 14.9078 49.4841 13.6097C49.4594 13.476 49.4231 13.3504 49.3779 13.2318C49.075 13.8763 48.7497 14.5113 48.4029 15.1359C47.845 16.1366 47.2325 17.1121 46.5482 18.0464C45.863 18.9796 45.1092 19.8753 44.2487 20.6921C43.3892 21.5066 42.4188 22.2488 41.288 22.7939C40.9794 22.939 40.6601 23.0691 40.3303 23.1801C39.9989 23.288 39.657 23.3747 39.3071 23.4373C38.6069 23.5581 37.8715 23.5702 37.1568 23.451C36.4403 23.3366 35.7533 23.0931 35.1241 22.7737C34.4978 22.4486 33.9246 22.0516 33.4079 21.6109C33.4079 21.6109 33.089 21.3306 33.0323 21.2747L32.6926 20.9515C32.4643 20.7355 32.2418 20.5201 32.0194 20.3026C31.5755 19.8678 30.7834 18.9791 30.7834 18.9791C30.7834 18.9791 29.4094 17.373 28.2793 16.1584C28.2793 16.1584 27.2211 15.0093 26.6433 14.5198C24.6658 12.8444 22.2549 13.2127 20.117 14.3756C18.1377 15.4524 16.3739 17.5174 14.0041 17.6642C12.1584 17.7784 10.4721 17.085 9.11467 15.8579C7.31125 14.228 5.58201 12.5316 4.13385 10.5477C3.49199 9.66835 2.05051 8.35643 0.602358 9.4852C-0.845719 10.6139 0.510553 14.3967 2.61875 18.355C2.61875 18.355 4.50822 21.6651 6.05867 22.8635C6.24958 23.0111 6.46209 23.1679 6.66473 23.2994ZM58.9603 14.941C59.9907 14.2545 61.1419 13.7207 62.2725 13.2252C64.4343 12.2776 67.7363 11.8083 68.5371 9.34214C69.3886 6.71992 67.0051 5.01623 64.5881 4.93429C58.0484 4.7127 51.5819 8.87464 51.2594 10.0656C51.4894 10.1066 51.7335 10.1403 51.9915 10.1678C53.0907 10.2831 54.4323 10.2868 55.8753 10.2868H56.1328C58.3576 10.2868 59.929 10.3466 60.9342 10.4932C61.4365 10.5665 61.7975 10.6625 62.0211 10.7758C62.2478 10.893 62.3196 11.0045 62.321 11.131C62.3207 11.2203 62.2639 11.3009 62.1256 11.4362C61.6453 11.918 60.3839 12.6325 59.2496 13.4178C58.6813 13.8114 58.1427 14.2247 57.7419 14.6466C57.3429 15.0677 57.0729 15.4997 57.0686 15.9454V15.9665C57.0713 16.2748 57.162 16.5496 57.3175 16.7929C57.2966 16.5897 57.5622 16.2466 57.6743 16.0932C58.015 15.6263 58.4828 15.259 58.9603 14.941ZM34.8077 20.0075C35.2123 20.3726 35.6441 20.6878 36.0956 20.9436C36.549 21.193 37.0229 21.3807 37.5132 21.4802C38.0027 21.5835 38.508 21.5993 39.0177 21.5382C39.2723 21.5049 39.5278 21.4545 39.7828 21.3863C40.0373 21.3147 40.2908 21.2276 40.5425 21.1262C41.4672 20.7431 42.3516 20.1616 43.1718 19.4814C43.9944 18.8007 44.7584 18.0217 45.4744 17.1937C46.1906 16.3645 46.8577 15.4826 47.4841 14.5689C47.9525 13.8835 48.3975 13.1794 48.8173 12.4591C48.4823 12.1995 48.0474 12.0687 47.5537 12.1007C46.3827 12.1766 45.3755 12.9514 44.5565 13.7273C43.6818 14.556 42.9067 15.476 41.9888 16.2607C41.073 17.0437 40.1168 17.7863 39.0833 18.4086C37.7215 19.2286 36.1888 19.8141 34.6354 19.8466C34.6428 19.8535 34.8077 20.0075 34.8077 20.0075ZM22.9278 23.2216C22.5 23.1981 22.0659 23.2566 21.6408 23.3888C21.2159 23.5243 20.8016 23.7275 20.406 23.9767C20.2076 24.1003 20.0148 24.238 19.8255 24.3822C19.8255 24.3822 18.3102 25.5059 17.831 25.7913C16.8632 26.3473 16.2705 26.7706 15.1669 27.0268C14.226 27.2411 13.486 27.2748 13.486 27.2748C12.921 27.3101 12.0314 27.3386 10.9463 27.1793C9.48601 26.9648 8.49261 26.582 8.49261 26.582C8.03793 26.4303 7.59482 26.2503 7.15956 26.0543C7.98387 27.2532 8.88888 28.4562 10.0112 29.3281C10.9606 30.0659 12.1098 30.5616 13.3142 30.6574C15.3013 30.8156 16.6823 29.8649 18.1536 28.6014C19.2055 27.698 20.1067 26.6087 21.0153 25.565C21.6485 24.838 22.2932 23.8811 23.0876 23.2374C23.0343 23.2328 22.9816 23.2224 22.9278 23.2216ZM19.9018 7.32482C20.1182 7.56909 20.4617 7.68404 20.8595 7.7593C21.0574 7.79433 21.2681 7.8146 21.4833 7.824C21.5874 7.83021 21.7071 7.83511 21.8018 7.82967L21.9506 7.82633L22.101 7.81406C22.5019 7.7819 22.9104 7.67783 23.3085 7.53833C23.7042 7.39107 24.0953 7.20621 24.4438 6.97445C25.0059 6.60078 25.1931 6.32784 25.2951 6.17763C25.3913 6.02501 25.4598 5.87029 25.4867 5.71915C25.5145 5.56769 25.4987 5.41157 25.4187 5.23744C25.3491 5.08979 25.2361 4.93592 25.0169 4.74144C24.4029 4.19635 23.3957 4.15371 22.8012 4.22144C21.4232 4.37833 20.2626 5.18462 19.832 6.04676C19.7235 6.27837 19.6672 6.56062 19.6908 6.79767C19.713 7.02136 19.7932 7.20078 19.9018 7.32482ZM23.5715 10.9854C25.6882 10.7443 27.2317 9.03464 27.019 7.16691C26.9624 6.66936 26.7853 6.21173 26.5182 5.81118C26.5455 6.10385 26.5022 6.39122 26.4208 6.65041C26.3256 6.9635 26.1693 7.24342 25.9888 7.49942C25.8076 7.752 25.6031 7.9701 25.3818 8.16699C24.9404 8.56078 24.4358 8.85942 23.8939 9.07658C23.3497 9.28583 22.7652 9.4188 22.1586 9.41616C22.1586 9.41616 21.9388 9.4212 21.7333 9.39682C21.5328 9.37305 21.3044 9.32792 21.2709 9.32078C20.9885 9.25856 20.704 9.17577 20.4251 9.04885C20.286 8.98501 19.9529 8.83153 19.6285 8.52823C19.5411 8.4466 19.46 8.35293 19.3863 8.25251C19.7126 10.0065 21.536 11.2172 23.5715 10.9854Z" fill="#FF6900"/>
<path fill-rule="evenodd" clip-rule="evenodd" d="M9.57251 39.8684H11.0908L12.9973 45.7934L14.9609 39.8456H16.1481L18.1117 45.7934L20.0181 39.8684H21.4908L18.7167 47.9167H17.4952L15.5317 42.1744L13.5681 47.9167H12.358L9.57251 39.8684Z" fill="#97999B"/>
<path fill-rule="evenodd" clip-rule="evenodd" d="M23.2376 47.8597H24.6418V39.8684H23.2376V47.8597Z" fill="#97999B"/>
<path fill-rule="evenodd" clip-rule="evenodd" d="M27.0049 39.8684H28.3063L32.5873 45.3939V39.8684H33.9685V47.8597H32.7927L28.3862 42.1744V47.8597H27.0049V39.8684Z" fill="#97999B"/>
<path fill-rule="evenodd" clip-rule="evenodd" d="M37.656 41.147V46.581H39.2314C40.9096 46.581 42.0055 45.4509 42.0055 43.8868V43.864C42.0055 42.3 40.9096 41.147 39.2314 41.147H37.656ZM36.2518 39.8684H39.2314C41.743 39.8684 43.4782 41.5921 43.4782 43.8412V43.864C43.4782 46.1131 41.743 47.8596 39.2314 47.8596H36.2518V39.8684Z" fill="#97999B"/>
<path fill-rule="evenodd" clip-rule="evenodd" d="M46.6861 41.1698H44.1518V39.8684H50.6361V41.1698H48.1018V47.8596H46.6861V41.1698Z" fill="#97999B"/>
<path fill-rule="evenodd" clip-rule="evenodd" d="M55.8077 43.8297C56.8123 43.8297 57.4516 43.3046 57.4516 42.4941V42.4713C57.4516 41.6151 56.8351 41.147 55.7963 41.147H53.7527V43.8297H55.8077ZM52.3486 39.8684H55.9104C56.9151 39.8684 57.7026 40.1652 58.2164 40.6676C58.6389 41.1013 58.8786 41.6951 58.8786 42.3913V42.4141C58.8786 43.7271 58.0908 44.5147 56.9836 44.8345L59.1412 47.8597H57.4744L55.5109 45.0742H53.7527V47.8597H52.3486V39.8684Z" fill="#97999B"/>
<path fill-rule="evenodd" clip-rule="evenodd" d="M60.8307 39.8684H66.7556V41.1242H62.2349V43.2019H66.2419V44.4575H62.2349V46.6039H66.8128V47.8597H60.8307V39.8684Z" fill="#97999B"/>
</svg>
