<svg width="239" height="87" viewBox="0 0 239 87" fill="none" xmlns="http://www.w3.org/2000/svg">
<path fill-rule="evenodd" clip-rule="evenodd" d="M34.8232 75.3724V86.2932H32.9995V78.9761H32.9788L30.0397 84.192H28.8437L25.9071 78.9761H25.8839V86.2932H24.0602V75.3724H25.891L29.4326 81.9091H29.4649L32.9924 75.3724H34.8232Z" fill="#00623A"/>
<path fill-rule="evenodd" clip-rule="evenodd" d="M115.21 86.2918H117.041V75.371H115.21V86.2918Z" fill="#00623A"/>
<path fill-rule="evenodd" clip-rule="evenodd" d="M141.621 75.3724H143.444V84.6275H148.42V86.2932H141.621V75.3724Z" fill="#00623A"/>
<path fill-rule="evenodd" clip-rule="evenodd" d="M170.379 75.3724H177.134V77.0376H172.203V80.0475H176.188V81.7158H172.203V84.6275H177.45V86.2932H170.379V75.3724Z" fill="#00623A"/>
<path fill-rule="evenodd" clip-rule="evenodd" d="M216.014 0.811768L206.319 30.1725H206.075L195.778 0.811768H172.812L196.143 58.4012L188.559 77.8149L207.799 86.9209L238.738 0.811768H216.014Z" fill="#13A538"/>
<path fill-rule="evenodd" clip-rule="evenodd" d="M152.963 63.7761L152.968 35.8338C152.968 28.6469 157.051 23.6294 165.642 23.6294C166.559 23.6294 168.507 23.6294 170.336 23.7525L170.31 0.639526H170.188C163.606 0.639526 157.536 2.87354 153.15 9.31663H152.968V0.828281H130.664V53.0425L152.963 63.7761Z" fill="#13A538"/>
<path fill-rule="evenodd" clip-rule="evenodd" d="M52.9129 80.8288C52.9129 77.6231 55.1199 75.2522 58.3474 75.2522C61.4478 75.2522 63.7592 77.4949 63.7592 80.8288C63.7592 84.1623 61.4478 86.4126 58.3474 86.4126C55.1199 86.4126 52.9129 84.0407 52.9129 80.8288ZM61.8618 80.8288C61.8618 78.5923 60.3335 76.9851 58.3479 76.9851C56.2519 76.9851 54.8113 78.6976 54.8113 80.8288C54.8113 82.9672 56.2519 84.6792 58.3479 84.6792C60.3335 84.6792 61.8618 83.0654 61.8618 80.8288Z" fill="#00623A"/>
<path fill-rule="evenodd" clip-rule="evenodd" d="M91.1144 83.2972C91.1144 85.0398 89.9714 86.2929 87.5935 86.2929H83.348V75.3721H87.0832C89.2998 75.3721 90.5764 76.2573 90.5764 78.037C90.5764 79.0413 90.0959 80.0543 89.0043 80.4969V80.5275C90.2437 80.8444 91.1144 81.7968 91.1144 83.2972ZM85.1716 79.8981H86.9147C87.8223 79.8981 88.7158 79.484 88.7158 78.4496C88.7158 77.5923 88.1384 77.0312 86.7302 77.0378H85.1716V79.8981ZM87.0534 84.6271C88.3321 84.618 89.2094 84.124 89.2094 83.0947C89.2094 82.1184 88.4869 81.5038 87.0902 81.5038H85.1716V84.6271H87.0534Z" fill="#00623A"/>
<path fill-rule="evenodd" clip-rule="evenodd" d="M33.462 35.3166L21.868 0.828003H0L23.8924 64.1045L33.462 35.3166Z" fill="#00623A"/>
<path fill-rule="evenodd" clip-rule="evenodd" d="M41.7792 10.2991L61.0469 19.6752L44.2317 64.1042H23.8925L41.7792 10.2991Z" fill="#13A538"/>
<mask id="mask0_62_751" style="mask-type:alpha" maskUnits="userSpaceOnUse" x="62" y="0" width="64" height="65">
<path fill-rule="evenodd" clip-rule="evenodd" d="M62.8072 0H125.267V64.744H62.8072V0Z" fill="white"/>
</mask>
<g mask="url(#mask0_62_751)">
<path fill-rule="evenodd" clip-rule="evenodd" d="M94.3741 17.2873C99.1874 17.2873 102.537 20.3852 103.637 25.5894H84.6225C85.5986 20.2595 89.4983 17.2873 94.3741 17.2873ZM108.768 42.5036C108.768 42.5036 108.768 42.499 108.768 42.4985C105.533 45.8798 102.56 46.8393 97.2358 46.8393C90.7163 46.8393 85.5979 43.8671 84.5618 37.917H124.658C125.023 36.4288 125.267 33.3961 125.267 31.9069C125.267 13.1963 112.166 -0.000244141 94.4934 -0.000244141C76.0914 -0.000244141 62.8072 13.5692 62.8072 32.3429C62.8072 51.4865 76.5805 64.744 94.8604 64.744C107.682 64.744 118.691 58.3259 124.556 50.1026L108.768 42.5036Z" fill="#13A538"/>
</g>
</svg>
